<?xml version="1.0" encoding="UTF-8"?>
<svg id="letra" xmlns="http://www.w3.org/2000/svg" xmlns:xlink="http://www.w3.org/1999/xlink" viewBox="0 0 857 202.05">
  <defs>
    <style>
      .cls-1 {
        fill: #fff;
      }

      .cls-2 {
        fill: #0049bf;
      }

      .cls-3 {
        clip-path: url(#clippath-1);
      }

      .cls-4 {
        fill: #e41d23;
      }

      .cls-5 {
        clip-path: url(#clippath);
      }

      .cls-6 {
        fill: none;
      }
    </style>
    <clipPath id="clippath">
      <rect id="SVGID" class="cls-6" x="13.74" y="13.24" width="196.04" height="84.89"/>
    </clipPath>
    <clipPath id="clippath-1">
      <rect id="SVGID-2" data-name="SVGID" class="cls-6" y="102.78" width="196.04" height="84.89" transform="translate(196.04 290.45) rotate(180)"/>
    </clipPath>
  </defs>
  <g>
    <path class="cls-1" d="M280.05,123.36c-1.08,.91-2.46,1.64-4.16,2.17-1.7,.54-3.66,.81-5.9,.81-2.98,0-5.44-.37-7.39-1.12-1.95-.75-3.21-2.03-3.79-3.85-2.32-7.28-4.22-13.18-5.71-17.69-1.49-4.51-2.65-8.46-3.48-11.86h-.62c-.25,4.89-.43,9.33-.56,13.35-.12,4.02-.21,7.93-.25,11.73-.04,3.81-.12,7.66-.25,11.55-.12,3.89-.31,8.2-.56,12.91-1.08,.42-2.48,.76-4.22,1.06-1.74,.29-3.48,.43-5.22,.43-3.64,0-6.48-.58-8.51-1.74-2.03-1.16-3.04-3.27-3.04-6.33l3.6-63.33c.66-1.08,2.11-2.24,4.35-3.48,2.23-1.24,5.38-1.86,9.44-1.86,4.39,0,7.82,.68,10.31,2.05,2.48,1.37,4.3,3.58,5.46,6.64,.74,1.99,1.55,4.26,2.42,6.83,.87,2.57,1.74,5.21,2.61,7.95,.87,2.73,1.72,5.44,2.55,8.13,.83,2.69,1.57,5.11,2.24,7.26h.62c1.99-6.95,3.97-13.68,5.96-20.18,1.99-6.5,3.81-11.94,5.46-16.33,1.24-.66,2.83-1.22,4.78-1.68,1.94-.45,4.12-.68,6.52-.68,4.06,0,7.37,.6,9.93,1.8,2.56,1.2,4.06,2.92,4.47,5.15,.33,1.66,.68,4.2,1.06,7.64,.37,3.44,.76,7.31,1.18,11.61,.41,4.31,.83,8.86,1.24,13.66,.41,4.8,.81,9.42,1.18,13.85,.37,4.43,.68,8.49,.93,12.17,.25,3.68,.41,6.52,.5,8.51-1.41,.83-2.88,1.43-4.41,1.8-1.53,.37-3.5,.56-5.9,.56-3.15,0-5.8-.54-7.95-1.61-2.15-1.08-3.31-3.19-3.48-6.33-.5-9.02-.81-17.14-.93-24.34-.12-7.2-.31-13.24-.56-18.13h-.62c-.83,3.23-2.03,7.29-3.6,12.17-1.57,4.88-3.48,11.13-5.71,18.75Z"/>
    <path class="cls-1" d="M387.34,111.69c0,5.13-.79,9.71-2.36,13.72-1.57,4.02-3.79,7.39-6.64,10.12-2.86,2.73-6.27,4.8-10.24,6.21-3.97,1.41-8.4,2.11-13.29,2.11s-9.31-.74-13.29-2.23c-3.97-1.49-7.39-3.62-10.24-6.4-2.86-2.77-5.07-6.15-6.64-10.12-1.57-3.97-2.36-8.44-2.36-13.41s.79-9.31,2.36-13.29c1.57-3.97,3.79-7.35,6.64-10.12,2.86-2.77,6.27-4.91,10.24-6.39,3.97-1.49,8.4-2.24,13.29-2.24s9.31,.77,13.29,2.3c3.97,1.53,7.39,3.68,10.24,6.46,2.86,2.77,5.07,6.15,6.64,10.12,1.57,3.97,2.36,8.36,2.36,13.16Zm-43.46,0c0,5.05,.97,8.92,2.92,11.61,1.94,2.69,4.66,4.04,8.13,4.04s6.15-1.37,8.01-4.1c1.86-2.73,2.79-6.58,2.79-11.55s-.95-8.79-2.86-11.49c-1.91-2.69-4.59-4.04-8.07-4.04s-6.17,1.35-8.07,4.04c-1.9,2.69-2.86,6.52-2.86,11.49Z"/>
    <path class="cls-1" d="M435.9,103.62c0-2.57-.73-4.45-2.17-5.65-1.45-1.2-3.41-1.8-5.9-1.8-1.66,0-3.29,.21-4.91,.62-1.61,.41-3,1.04-4.16,1.86v43.09c-.83,.25-2.13,.5-3.91,.75-1.78,.25-3.62,.37-5.53,.37s-3.46-.12-4.91-.37c-1.45-.25-2.67-.75-3.66-1.49-.99-.75-1.76-1.76-2.3-3.04-.54-1.28-.81-2.96-.81-5.03v-37.25c0-2.24,.48-4.06,1.43-5.46,.95-1.41,2.25-2.69,3.91-3.85,2.81-1.99,6.35-3.6,10.62-4.84,4.26-1.24,9-1.86,14.22-1.86,9.35,0,16.56,2.05,21.61,6.15,5.05,4.1,7.57,9.79,7.57,17.07v38.87c-.83,.25-2.13,.5-3.91,.75-1.78,.25-3.62,.37-5.53,.37s-3.46-.12-4.9-.37c-1.45-.25-2.67-.75-3.66-1.49-.99-.75-1.76-1.76-2.3-3.04-.54-1.28-.81-2.96-.81-5.03v-29.31Z"/>
    <path class="cls-1" d="M491.15,121.13c0,2.15,.68,3.68,2.05,4.59,1.37,.91,3.29,1.37,5.77,1.37,1.24,0,2.52-.1,3.85-.31,1.32-.2,2.48-.47,3.48-.81,.75,.91,1.39,1.92,1.92,3.04,.54,1.12,.81,2.46,.81,4.04,0,3.15-1.18,5.71-3.54,7.7-2.36,1.99-6.52,2.98-12.48,2.98-7.29,0-12.89-1.66-16.83-4.97-3.93-3.31-5.9-8.69-5.9-16.14v-53.15c.91-.25,2.21-.52,3.91-.81,1.7-.29,3.5-.43,5.4-.43,3.64,0,6.48,.64,8.51,1.92,2.03,1.28,3.04,4,3.04,8.13v7.95h16.27c.5,.91,.97,2.05,1.43,3.41,.45,1.37,.68,2.88,.68,4.53,0,2.9-.64,4.99-1.92,6.27-1.28,1.28-3,1.92-5.15,1.92h-11.3v18.75Z"/>
    <path class="cls-1" d="M550.88,143.85c-4.89,0-9.42-.68-13.6-2.05-4.18-1.37-7.82-3.41-10.93-6.15-3.1-2.73-5.55-6.17-7.33-10.31-1.78-4.14-2.67-8.98-2.67-14.53s.89-10.16,2.67-14.09c1.78-3.93,4.12-7.16,7.02-9.69,2.9-2.52,6.21-4.39,9.93-5.59,3.72-1.2,7.53-1.8,11.42-1.8,4.39,0,8.38,.66,11.98,1.99,3.6,1.32,6.71,3.15,9.31,5.46,2.61,2.32,4.64,5.09,6.08,8.32,1.45,3.23,2.17,6.75,2.17,10.56,0,2.82-.79,4.97-2.36,6.46-1.57,1.49-3.77,2.44-6.58,2.86l-30.67,4.59c.91,2.73,2.77,4.78,5.59,6.15,2.81,1.37,6.04,2.05,9.69,2.05,3.39,0,6.6-.43,9.62-1.3,3.02-.87,5.48-1.88,7.39-3.04,1.32,.83,2.44,1.99,3.35,3.48,.91,1.49,1.37,3.06,1.37,4.72,0,3.72-1.74,6.5-5.22,8.32-2.65,1.41-5.63,2.36-8.94,2.86-3.31,.5-6.42,.74-9.31,.74Zm-3.48-48.8c-1.99,0-3.71,.33-5.15,.99-1.45,.66-2.63,1.51-3.54,2.55-.91,1.04-1.6,2.19-2.05,3.48-.46,1.28-.73,2.59-.81,3.91l21.23-3.48c-.25-1.65-1.16-3.31-2.73-4.97-1.57-1.65-3.89-2.48-6.95-2.48Z"/>
    <path class="cls-1" d="M638.05,123.86c0,6.29-2.36,11.22-7.08,14.78-4.72,3.56-11.67,5.34-20.86,5.34-3.48,0-6.71-.25-9.69-.75-2.98-.5-5.53-1.26-7.64-2.3-2.11-1.03-3.77-2.34-4.97-3.91-1.2-1.57-1.8-3.43-1.8-5.59,0-1.99,.41-3.66,1.24-5.03,.83-1.37,1.82-2.5,2.98-3.41,2.4,1.32,5.15,2.5,8.26,3.54,3.1,1.04,6.68,1.55,10.74,1.55,2.56,0,4.53-.37,5.9-1.12,1.37-.74,2.05-1.74,2.05-2.98,0-1.16-.5-2.07-1.49-2.73-.99-.66-2.65-1.2-4.97-1.61l-3.72-.75c-7.2-1.41-12.56-3.62-16.08-6.64-3.52-3.02-5.28-7.35-5.28-12.98,0-3.06,.66-5.84,1.99-8.32,1.32-2.48,3.19-4.55,5.59-6.21,2.4-1.65,5.28-2.94,8.63-3.85,3.35-.91,7.06-1.37,11.11-1.37,3.06,0,5.94,.23,8.63,.68,2.69,.46,5.03,1.14,7.02,2.05,1.99,.91,3.56,2.09,4.72,3.54,1.16,1.45,1.74,3.17,1.74,5.15s-.35,3.54-1.06,4.91c-.7,1.37-1.6,2.51-2.67,3.41-.66-.41-1.66-.85-2.98-1.3-1.32-.45-2.77-.87-4.35-1.24-1.57-.37-3.17-.68-4.78-.93-1.61-.25-3.08-.37-4.41-.37-2.73,0-4.84,.31-6.33,.93-1.49,.62-2.24,1.6-2.24,2.92,0,.91,.41,1.66,1.24,2.24,.83,.58,2.4,1.12,4.72,1.61l3.85,.87c7.95,1.82,13.6,4.33,16.95,7.51,3.35,3.19,5.03,7.31,5.03,12.36Z"/>
    <path class="cls-1" d="M699.15,123.86c0,6.29-2.36,11.22-7.08,14.78s-11.67,5.34-20.86,5.34c-3.48,0-6.71-.25-9.69-.75-2.98-.5-5.53-1.26-7.64-2.3s-3.77-2.34-4.97-3.91c-1.2-1.57-1.8-3.43-1.8-5.59,0-1.99,.41-3.66,1.24-5.03,.83-1.37,1.82-2.5,2.98-3.41,2.4,1.32,5.15,2.5,8.26,3.54,3.1,1.04,6.68,1.55,10.74,1.55,2.56,0,4.53-.37,5.9-1.12,1.37-.74,2.05-1.74,2.05-2.98,0-1.16-.5-2.07-1.49-2.73-.99-.66-2.65-1.2-4.97-1.61l-3.72-.75c-7.2-1.41-12.56-3.62-16.08-6.64-3.52-3.02-5.28-7.35-5.28-12.98,0-3.06,.66-5.84,1.99-8.32,1.32-2.48,3.19-4.55,5.59-6.21,2.4-1.65,5.28-2.94,8.63-3.85,3.35-.91,7.06-1.37,11.11-1.37,3.06,0,5.94,.23,8.63,.68,2.69,.46,5.03,1.14,7.02,2.05,1.99,.91,3.56,2.09,4.72,3.54,1.16,1.45,1.74,3.17,1.74,5.15s-.35,3.54-1.06,4.91c-.7,1.37-1.6,2.51-2.67,3.41-.66-.41-1.66-.85-2.98-1.3-1.32-.45-2.77-.87-4.35-1.24-1.57-.37-3.17-.68-4.78-.93-1.61-.25-3.08-.37-4.41-.37-2.73,0-4.84,.31-6.33,.93-1.49,.62-2.24,1.6-2.24,2.92,0,.91,.41,1.66,1.24,2.24,.83,.58,2.4,1.12,4.72,1.61l3.85,.87c7.95,1.82,13.6,4.33,16.95,7.51,3.35,3.19,5.03,7.31,5.03,12.36Z"/>
    <path class="cls-1" d="M772.41,111.69c0,5.13-.79,9.71-2.36,13.72-1.57,4.02-3.79,7.39-6.64,10.12-2.86,2.73-6.27,4.8-10.24,6.21-3.97,1.41-8.4,2.11-13.29,2.11s-9.31-.74-13.29-2.23c-3.97-1.49-7.39-3.62-10.24-6.4-2.86-2.77-5.07-6.15-6.64-10.12-1.57-3.97-2.36-8.44-2.36-13.41s.79-9.31,2.36-13.29c1.57-3.97,3.79-7.35,6.64-10.12,2.86-2.77,6.27-4.91,10.24-6.39,3.97-1.49,8.4-2.24,13.29-2.24s9.31,.77,13.29,2.3c3.97,1.53,7.39,3.68,10.24,6.46,2.86,2.77,5.07,6.15,6.64,10.12,1.57,3.97,2.36,8.36,2.36,13.16Zm-43.46,0c0,5.05,.97,8.92,2.92,11.61,1.94,2.69,4.66,4.04,8.13,4.04s6.15-1.37,8.01-4.1c1.86-2.73,2.79-6.58,2.79-11.55s-.95-8.79-2.86-11.49c-1.9-2.69-4.59-4.04-8.07-4.04s-6.17,1.35-8.07,4.04c-1.9,2.69-2.86,6.52-2.86,11.49Z"/>
    <path class="cls-1" d="M803.83,141.74c-.83,.25-2.13,.5-3.91,.75-1.78,.25-3.62,.37-5.53,.37s-3.46-.12-4.91-.37c-1.45-.25-2.67-.75-3.66-1.49-.99-.75-1.76-1.76-2.3-3.04-.54-1.28-.81-2.96-.81-5.03v-37.25c0-1.9,.35-3.54,1.06-4.91,.7-1.37,1.72-2.59,3.04-3.66,1.32-1.08,2.96-2.05,4.9-2.92,1.94-.87,4.04-1.63,6.27-2.3,2.23-.66,4.55-1.18,6.95-1.55,2.4-.37,4.8-.56,7.2-.56,3.97,0,7.12,.77,9.44,2.3,2.32,1.53,3.48,4.03,3.48,7.51,0,1.16-.17,2.3-.5,3.41-.33,1.12-.75,2.13-1.24,3.04-1.74,0-3.52,.08-5.34,.25-1.82,.17-3.6,.42-5.34,.75-1.74,.33-3.37,.68-4.91,1.06-1.53,.37-2.84,.81-3.91,1.3v42.34Z"/>
    <path class="cls-1" d="M833.25,64.75c0-3.15,1.06-5.79,3.17-7.95,2.11-2.15,4.91-3.23,8.38-3.23s6.27,1.08,8.38,3.23c2.11,2.15,3.17,4.8,3.17,7.95s-1.05,5.8-3.17,7.95c-2.11,2.15-4.9,3.23-8.38,3.23s-6.27-1.08-8.38-3.23c-2.11-2.15-3.17-4.8-3.17-7.95Zm22.1,76.99c-.91,.17-2.26,.39-4.04,.68-1.78,.29-3.58,.43-5.4,.43s-3.46-.12-4.91-.37c-1.45-.25-2.67-.75-3.66-1.49s-1.76-1.76-2.3-3.04c-.54-1.28-.81-2.96-.81-5.03v-50.54c.91-.16,2.25-.39,4.04-.68,1.78-.29,3.58-.43,5.4-.43s3.46,.12,4.91,.37c1.45,.25,2.67,.75,3.66,1.49,.99,.75,1.76,1.76,2.3,3.04,.54,1.28,.81,2.96,.81,5.03v50.54Z"/>
  </g>
  <g>
    <path class="cls-1" d="M254.07,10.7c0,.83-.23,1.54-.68,2.14-.46,.6-.97,1.07-1.55,1.4-1.08-.7-2.28-1.34-3.6-1.92-1.33-.58-2.96-.87-4.91-.87-3.52,0-6.32,1.14-8.41,3.41-2.09,2.28-3.14,5.57-3.14,9.87s1.08,7.68,3.23,9.87c2.15,2.19,5.05,3.29,8.69,3.29,1.9,0,3.55-.26,4.94-.78,1.39-.52,2.62-1.13,3.69-1.83,.58,.37,1.06,.88,1.43,1.52,.37,.64,.56,1.38,.56,2.2,0,.7-.19,1.35-.56,1.93-.37,.58-.99,1.1-1.86,1.55-.83,.5-2,.96-3.51,1.4-1.51,.43-3.38,.65-5.62,.65-2.73,0-5.27-.4-7.61-1.21-2.34-.81-4.38-2.03-6.12-3.66-1.74-1.63-3.1-3.69-4.1-6.18-.99-2.48-1.49-5.4-1.49-8.75s.5-6.07,1.49-8.54c.99-2.46,2.35-4.53,4.07-6.21,1.72-1.68,3.73-2.95,6.02-3.82s4.73-1.3,7.3-1.3c1.78,0,3.39,.16,4.84,.47,1.45,.31,2.69,.74,3.73,1.27,1.03,.54,1.82,1.16,2.36,1.86,.54,.7,.81,1.45,.81,2.24Z"/>
    <path class="cls-1" d="M288.4,28.83c0,2.4-.36,4.56-1.09,6.49-.72,1.93-1.75,3.57-3.07,4.94-1.33,1.37-2.92,2.41-4.78,3.14-1.86,.72-3.95,1.09-6.27,1.09s-4.41-.36-6.27-1.09c-1.86-.72-3.46-1.76-4.78-3.1-1.33-1.34-2.35-2.98-3.07-4.91-.73-1.92-1.09-4.11-1.09-6.55s.36-4.56,1.09-6.49c.72-1.93,1.76-3.56,3.1-4.91,1.34-1.34,2.95-2.38,4.81-3.1,1.86-.72,3.93-1.09,6.21-1.09s4.35,.36,6.21,1.09c1.86,.72,3.47,1.77,4.81,3.14,1.34,1.37,2.38,3.01,3.1,4.94,.72,1.92,1.09,4.07,1.09,6.43Zm-15.21-9.38c-2.24,0-4,.82-5.28,2.45-1.28,1.64-1.92,3.94-1.92,6.92s.63,5.34,1.89,6.95c1.26,1.61,3.03,2.42,5.31,2.42s4.05-.82,5.31-2.45c1.26-1.63,1.89-3.94,1.89-6.92s-.64-5.29-1.92-6.92c-1.28-1.63-3.04-2.45-5.28-2.45Z"/>
    <path class="cls-1" d="M301.6,43.8c-.64,.12-1.33,.19-2.08,.19-1.49,0-2.58-.27-3.26-.81-.68-.54-1.02-1.49-1.02-2.86V3.19c.33-.12,.82-.24,1.46-.34,.64-.1,1.33-.16,2.08-.16,1.49,0,2.58,.27,3.26,.81,.68,.54,1.02,1.49,1.02,2.86V43.48c-.33,.08-.82,.19-1.46,.31Z"/>
    <path class="cls-1" d="M317.71,32.37c.58,2.11,1.65,3.64,3.23,4.59,1.57,.95,3.52,1.43,5.84,1.43,1.74,0,3.34-.26,4.81-.78,1.47-.52,2.66-1.06,3.57-1.65,.58,.33,1.06,.79,1.43,1.37,.37,.58,.56,1.2,.56,1.86,0,.83-.28,1.56-.84,2.2-.56,.64-1.33,1.19-2.3,1.65-.97,.46-2.12,.81-3.45,1.06-1.33,.25-2.75,.37-4.28,.37-2.44,0-4.67-.33-6.67-.99-2.01-.66-3.73-1.67-5.15-3.01-1.43-1.34-2.55-3.01-3.35-5-.81-1.99-1.21-4.3-1.21-6.95s.39-4.8,1.18-6.71c.79-1.9,1.85-3.5,3.2-4.78,1.34-1.28,2.91-2.24,4.69-2.86,1.78-.62,3.66-.93,5.65-.93s3.89,.32,5.59,.96c1.7,.64,3.15,1.53,4.35,2.67,1.2,1.14,2.14,2.51,2.83,4.1,.68,1.59,1.02,3.32,1.02,5.18,0,1.16-.3,2.03-.9,2.61-.6,.58-1.44,.95-2.51,1.12l-17.26,2.48Zm6.89-13.22c-2.03,0-3.73,.67-5.09,2.02-1.37,1.35-2.13,3.26-2.3,5.74l13.78-2.05c-.17-1.53-.77-2.87-1.8-4-1.04-1.14-2.57-1.71-4.59-1.71Z"/>
    <path class="cls-1" d="M363.41,41c-.83,.41-1.79,.77-2.89,1.06-1.1,.29-2.37,.43-3.82,.43-1.86,0-3.62-.26-5.28-.78-1.66-.52-3.1-1.36-4.35-2.51-1.24-1.16-2.23-2.66-2.95-4.5-.73-1.84-1.09-4.09-1.09-6.74,0-2.4,.36-4.52,1.09-6.36,.72-1.84,1.76-3.38,3.1-4.63,1.34-1.24,2.95-2.17,4.81-2.79,1.86-.62,3.93-.93,6.21-.93,2.15,0,4.13,.27,5.93,.81,1.8,.54,3.24,1.16,4.32,1.86,.74,.5,1.33,1.06,1.77,1.68,.43,.62,.65,1.41,.65,2.36v23.97c0,2.11-.38,3.93-1.15,5.46-.77,1.53-1.81,2.78-3.14,3.76-1.33,.97-2.88,1.69-4.66,2.14-1.78,.45-3.71,.68-5.77,.68s-4.03-.2-5.62-.59c-1.59-.39-2.78-.84-3.57-1.33-1.37-.87-2.05-2.03-2.05-3.48,0-.79,.17-1.47,.5-2.05,.33-.58,.72-1.01,1.18-1.3,1.08,.66,2.38,1.24,3.91,1.74,1.53,.5,3.17,.75,4.91,.75,2.48,0,4.43-.48,5.84-1.43,1.41-.95,2.11-2.48,2.11-4.59v-2.67Zm-5.4-4.59c1.2,0,2.22-.17,3.07-.5,.85-.33,1.58-.72,2.2-1.18v-14.03c-.58-.33-1.25-.62-2.02-.87-.77-.25-1.69-.37-2.76-.37-2.28,0-4.11,.69-5.49,2.08-1.39,1.39-2.08,3.53-2.08,6.43,0,1.57,.18,2.9,.53,3.97,.35,1.08,.85,1.95,1.49,2.61,.64,.66,1.4,1.14,2.27,1.43,.87,.29,1.8,.43,2.79,.43Z"/>
    <path class="cls-1" d="M378.37,5.36c0-1.2,.42-2.22,1.27-3.07,.85-.85,1.93-1.27,3.26-1.27s2.4,.42,3.23,1.27c.83,.85,1.24,1.87,1.24,3.07s-.41,2.29-1.24,3.14c-.83,.85-1.9,1.27-3.23,1.27s-2.41-.42-3.26-1.27c-.85-.85-1.27-1.89-1.27-3.14Zm.62,9c.33-.08,.82-.19,1.46-.31,.64-.12,1.33-.19,2.08-.19,1.49,0,2.58,.27,3.26,.81,.68,.54,1.02,1.49,1.02,2.86v25.95c-.33,.08-.82,.19-1.46,.31-.64,.12-1.33,.19-2.08,.19-1.49,0-2.58-.27-3.26-.81-.68-.54-1.02-1.49-1.02-2.86V14.36Z"/>
    <path class="cls-1" d="M423.94,28.83c0,2.4-.36,4.56-1.09,6.49-.72,1.93-1.75,3.57-3.07,4.94-1.33,1.37-2.92,2.41-4.78,3.14-1.86,.72-3.95,1.09-6.27,1.09s-4.41-.36-6.27-1.09c-1.86-.72-3.46-1.76-4.78-3.1-1.33-1.34-2.35-2.98-3.07-4.91-.73-1.92-1.09-4.11-1.09-6.55s.36-4.56,1.09-6.49c.72-1.93,1.76-3.56,3.1-4.91,1.34-1.34,2.95-2.38,4.81-3.1,1.86-.72,3.93-1.09,6.21-1.09s4.35,.36,6.21,1.09c1.86,.72,3.47,1.77,4.81,3.14,1.34,1.37,2.38,3.01,3.1,4.94,.72,1.92,1.09,4.07,1.09,6.43Zm-15.21-9.38c-2.24,0-4,.82-5.28,2.45-1.28,1.64-1.92,3.94-1.92,6.92s.63,5.34,1.89,6.95c1.26,1.61,3.03,2.42,5.31,2.42s4.05-.82,5.31-2.45c1.26-1.63,1.89-3.94,1.89-6.92s-.64-5.29-1.92-6.92c-1.28-1.63-3.04-2.45-5.28-2.45Z"/>
  </g>
  <g>
    <path class="cls-1" d="M616.6,199.74c-1.66,1.44-3.84,2.16-6.56,2.16-1.82,0-3.26-.27-4.32-.82-1.06-.55-1.59-1.43-1.59-2.66,0-.56,.09-1.04,.27-1.44,.18-.4,.39-.73,.62-.99,.56,.17,1.13,.31,1.69,.45,.56,.13,1.17,.2,1.84,.2,2.71,0,4.07-1.41,4.07-4.22v-21.31c.3-.07,.73-.15,1.29-.25,.56-.1,1.12-.15,1.69-.15,1.19,0,2.07,.22,2.63,.65,.56,.43,.84,1.23,.84,2.38v19.37c0,2.98-.83,5.19-2.48,6.63Z"/>
    <path class="cls-1" d="M649.13,189.48c0,1.92-.29,3.65-.87,5.19-.58,1.54-1.4,2.86-2.46,3.95-1.06,1.09-2.33,1.93-3.82,2.51-1.49,.58-3.16,.87-5.02,.87s-3.53-.29-5.02-.87c-1.49-.58-2.77-1.41-3.82-2.48-1.06-1.08-1.88-2.38-2.46-3.92-.58-1.54-.87-3.29-.87-5.24s.29-3.65,.87-5.19c.58-1.54,1.41-2.85,2.48-3.92,1.08-1.08,2.36-1.9,3.85-2.48,1.49-.58,3.15-.87,4.97-.87s3.48,.29,4.97,.87c1.49,.58,2.77,1.42,3.85,2.51,1.08,1.09,1.9,2.41,2.48,3.95,.58,1.54,.87,3.25,.87,5.14Zm-12.17-7.5c-1.79,0-3.2,.65-4.22,1.96-1.03,1.31-1.54,3.15-1.54,5.54s.5,4.27,1.51,5.56c1.01,1.29,2.43,1.94,4.25,1.94s3.24-.65,4.25-1.96c1.01-1.31,1.51-3.15,1.51-5.54s-.51-4.23-1.54-5.54c-1.03-1.31-2.43-1.96-4.22-1.96Z"/>
    <path class="cls-1" d="M672.58,194.59c0,2.32-.86,4.13-2.58,5.44-1.72,1.31-4.24,1.96-7.55,1.96-1.36,0-2.59-.1-3.7-.3-1.11-.2-2.07-.49-2.88-.87-.81-.38-1.44-.84-1.89-1.39s-.67-1.15-.67-1.81c0-.63,.14-1.18,.42-1.64,.28-.46,.65-.84,1.12-1.14,.93,.6,1.99,1.13,3.2,1.59s2.61,.7,4.2,.7c1.36,0,2.38-.22,3.08-.67,.7-.45,1.04-1.07,1.04-1.86,0-1.36-.99-2.25-2.98-2.68l-2.78-.65c-2.45-.56-4.26-1.41-5.44-2.53-1.18-1.13-1.76-2.63-1.76-4.52,0-2.15,.86-3.9,2.58-5.24,1.72-1.34,4.14-2.01,7.25-2.01,1.19,0,2.29,.09,3.3,.27,1.01,.18,1.89,.45,2.63,.8,.74,.35,1.32,.76,1.74,1.24,.41,.48,.62,1.04,.62,1.66,0,.6-.13,1.12-.4,1.56-.27,.45-.58,.8-.94,1.07-.3-.2-.69-.4-1.17-.6-.48-.2-1.01-.38-1.59-.55-.58-.16-1.19-.31-1.84-.42-.65-.12-1.28-.17-1.91-.17-1.29,0-2.3,.21-3.03,.62s-1.09,1-1.09,1.76c0,.56,.21,1.03,.62,1.39,.41,.36,1.13,.66,2.16,.89l2.43,.6c2.75,.63,4.73,1.55,5.96,2.76,1.22,1.21,1.84,2.79,1.84,4.74Z"/>
    <path class="cls-1" d="M682.96,192.31c.46,1.69,1.32,2.91,2.58,3.68,1.26,.76,2.81,1.14,4.67,1.14,1.39,0,2.67-.21,3.85-.62,1.17-.41,2.13-.85,2.86-1.32,.46,.27,.84,.63,1.14,1.09s.45,.96,.45,1.49c0,.66-.22,1.25-.67,1.76-.45,.51-1.06,.95-1.84,1.32-.78,.36-1.7,.65-2.76,.84-1.06,.2-2.2,.3-3.43,.3-1.95,0-3.73-.27-5.34-.8-1.61-.53-2.98-1.33-4.12-2.41-1.14-1.08-2.04-2.41-2.68-4-.65-1.59-.97-3.44-.97-5.56s.31-3.84,.94-5.36c.63-1.52,1.48-2.8,2.56-3.82,1.08-1.03,2.33-1.79,3.75-2.28s2.93-.75,4.52-.75,3.11,.26,4.47,.77c1.36,.51,2.52,1.23,3.48,2.14,.96,.91,1.71,2,2.26,3.28,.55,1.28,.82,2.66,.82,4.15,0,.93-.24,1.62-.72,2.09-.48,.46-1.15,.76-2.01,.89l-13.81,1.99Zm5.51-10.58c-1.62,0-2.98,.54-4.07,1.61-1.09,1.08-1.71,2.61-1.84,4.6l11.03-1.64c-.13-1.22-.61-2.29-1.44-3.2-.83-.91-2.05-1.37-3.68-1.37Zm3.28-16.24c1.22,0,2.17,.28,2.83,.84,.66,.56,.99,1.19,.99,1.89,0,.63-.13,1.13-.4,1.51-.27,.38-.71,.85-1.34,1.42l-4.62,4.17c-1.06,0-1.88-.26-2.46-.8-.58-.53-.87-1.11-.87-1.74,0-.36,.07-.68,.22-.94,.15-.26,.39-.58,.72-.94l4.92-5.41Z"/>
    <path class="cls-1" d="M740.62,197.08c0,.83-.17,1.47-.52,1.91-.35,.45-.9,.87-1.66,1.27-.43,.26-.97,.5-1.61,.72-.65,.22-1.36,.4-2.14,.55-.78,.15-1.58,.27-2.41,.37-.83,.1-1.66,.15-2.48,.15-2.35,0-4.53-.31-6.53-.92-2-.61-3.74-1.56-5.21-2.86-1.47-1.29-2.63-2.93-3.45-4.92-.83-1.99-1.24-4.35-1.24-7.1s.42-4.92,1.27-6.93c.84-2,2-3.67,3.48-4.99,1.47-1.32,3.19-2.33,5.14-3.01,1.95-.68,4.06-1.02,6.31-1.02,1.49,0,2.84,.12,4.05,.37,1.21,.25,2.25,.58,3.13,.99,.88,.41,1.55,.91,2.01,1.49s.7,1.18,.7,1.81c0,.66-.18,1.24-.55,1.74-.36,.5-.78,.88-1.24,1.14-.86-.56-1.9-1.08-3.13-1.56-1.23-.48-2.73-.72-4.52-.72-1.46,0-2.8,.24-4.02,.72-1.23,.48-2.28,1.17-3.15,2.06-.88,.89-1.56,2-2.06,3.33-.5,1.33-.75,2.83-.75,4.52,0,1.82,.25,3.39,.75,4.72,.5,1.33,1.18,2.43,2.06,3.3,.88,.88,1.92,1.52,3.13,1.94,1.21,.41,2.52,.62,3.95,.62,.96,0,1.84-.08,2.63-.25,.79-.16,1.41-.36,1.84-.6v-6.9h-6.36c-.17-.26-.31-.61-.45-1.04-.13-.43-.2-.91-.2-1.44,0-.86,.21-1.51,.62-1.94,.41-.43,.95-.65,1.61-.65h8.35c.83,0,1.48,.23,1.96,.7,.48,.46,.72,1.11,.72,1.94v10.48Z"/>
    <path class="cls-1" d="M756.07,177.01c3.24,0,5.84,.7,7.77,2.09,1.94,1.39,2.91,3.54,2.91,6.46v11.47c0,.79-.2,1.42-.6,1.89s-.89,.88-1.49,1.24c-.93,.56-2.1,1.01-3.53,1.34-1.42,.33-3.05,.5-4.87,.5-3.31,0-5.92-.64-7.82-1.91-1.9-1.27-2.86-3.19-2.86-5.74,0-2.22,.7-3.92,2.11-5.09,1.41-1.17,3.45-1.9,6.13-2.16l6.81-.7v-.89c0-1.26-.46-2.19-1.37-2.78s-2.19-.89-3.85-.89c-1.29,0-2.55,.16-3.77,.47-1.23,.31-2.32,.7-3.28,1.17-.36-.26-.67-.62-.92-1.07s-.37-.94-.37-1.47c0-.66,.16-1.2,.47-1.61,.31-.41,.82-.79,1.51-1.12,.96-.4,2.05-.7,3.28-.89,1.22-.2,2.47-.3,3.73-.3Zm.2,20.22c.96,0,1.84-.09,2.63-.27,.8-.18,1.37-.4,1.74-.67v-5.51l-4.82,.45c-1.32,.13-2.33,.42-3.03,.87s-1.04,1.15-1.04,2.11,.36,1.71,1.07,2.24,1.86,.79,3.45,.79Zm3.38-31.74c1.23,0,2.17,.28,2.83,.84,.66,.56,.99,1.19,.99,1.89,0,.63-.13,1.13-.4,1.51-.27,.38-.71,.85-1.34,1.42l-4.62,4.17c-1.06,0-1.88-.26-2.46-.8-.58-.53-.87-1.11-.87-1.74,0-.36,.07-.68,.22-.94,.15-.26,.39-.58,.72-.94l4.92-5.41Z"/>
    <path class="cls-1" d="M778.35,201.45c-.51,.1-1.07,.15-1.66,.15-1.19,0-2.06-.22-2.61-.65-.55-.43-.82-1.19-.82-2.28v-29.7c.26-.1,.65-.19,1.17-.27,.51-.08,1.07-.12,1.66-.12,1.19,0,2.06,.22,2.61,.65,.55,.43,.82,1.19,.82,2.29v29.7c-.27,.07-.65,.15-1.17,.25Z"/>
    <path class="cls-1" d="M804.35,177.21c.86,0,1.58,.2,2.16,.6,.58,.4,.87,1.06,.87,1.99,0,.43-.12,1.13-.37,2.09-.25,.96-.58,2.07-.99,3.33-.41,1.26-.89,2.62-1.42,4.07-.53,1.46-1.08,2.89-1.64,4.3-.56,1.41-1.13,2.74-1.69,4-.56,1.26-1.08,2.32-1.54,3.18-.33,.27-.83,.48-1.49,.65-.66,.17-1.39,.25-2.19,.25-.96,0-1.78-.12-2.46-.37-.68-.25-1.17-.65-1.46-1.22-.3-.56-.66-1.34-1.09-2.33s-.89-2.12-1.39-3.38c-.5-1.26-1.01-2.59-1.54-4-.53-1.41-1.04-2.81-1.51-4.2-.48-1.39-.93-2.73-1.34-4.02-.41-1.29-.75-2.45-1.02-3.48,.33-.4,.8-.74,1.41-1.02,.61-.28,1.25-.42,1.91-.42,.86,0,1.56,.2,2.11,.6,.55,.4,.97,1.11,1.27,2.14l2.48,8.2c.2,.66,.42,1.37,.67,2.11,.25,.75,.49,1.47,.72,2.19s.45,1.39,.67,2.04c.22,.65,.39,1.18,.52,1.61h.2c.96-2.91,1.9-5.92,2.83-9.02,.93-3.1,1.74-6.15,2.43-9.16,.4-.23,.85-.4,1.37-.52,.51-.12,1.02-.17,1.52-.17Z"/>
    <path class="cls-1" d="M816.82,192.31c.46,1.69,1.32,2.91,2.58,3.68,1.26,.76,2.81,1.14,4.67,1.14,1.39,0,2.67-.21,3.85-.62,1.17-.41,2.13-.85,2.86-1.32,.46,.27,.84,.63,1.14,1.09s.45,.96,.45,1.49c0,.66-.22,1.25-.67,1.76-.45,.51-1.06,.95-1.84,1.32-.78,.36-1.7,.65-2.76,.84-1.06,.2-2.2,.3-3.43,.3-1.95,0-3.73-.27-5.34-.8-1.61-.53-2.98-1.33-4.12-2.41-1.14-1.08-2.04-2.41-2.68-4-.65-1.59-.97-3.44-.97-5.56s.31-3.84,.94-5.36c.63-1.52,1.48-2.8,2.56-3.82,1.08-1.03,2.33-1.79,3.75-2.28s2.93-.75,4.52-.75,3.11,.26,4.47,.77c1.36,.51,2.52,1.23,3.48,2.14,.96,.91,1.71,2,2.26,3.28,.55,1.28,.82,2.66,.82,4.15,0,.93-.24,1.62-.72,2.09-.48,.46-1.15,.76-2.01,.89l-13.81,1.99Zm5.51-10.58c-1.62,0-2.98,.54-4.07,1.61-1.09,1.08-1.71,2.61-1.84,4.6l11.03-1.64c-.13-1.22-.61-2.29-1.44-3.2-.83-.91-2.05-1.37-3.68-1.37Z"/>
    <path class="cls-1" d="M838.32,201.25c-.4-.36-.71-.78-.94-1.24-.23-.46-.35-.98-.35-1.54s.12-1.08,.37-1.56c.25-.48,.55-.95,.92-1.42l10.53-12.81h-10.93c-.17-.26-.32-.62-.45-1.07-.13-.45-.2-.92-.2-1.42,0-.86,.2-1.49,.6-1.89,.4-.4,.93-.6,1.59-.6h15.8c.4,.36,.71,.78,.94,1.24s.35,.99,.35,1.59c0,.53-.12,1.04-.37,1.51-.25,.48-.55,.95-.92,1.42l-10.48,12.86h11.57c.17,.27,.31,.61,.45,1.04,.13,.43,.2,.89,.2,1.39,0,.86-.2,1.49-.6,1.89s-.93,.6-1.59,.6h-16.49Z"/>
  </g>
  <rect class="cls-1" x="227.39" y="182.58" width="368.14" height="5.79"/>
  <g>
    <g>
      <g>
        <rect class="cls-4" x="2.99" width="203.77" height="200.79" rx="47.82" ry="47.82"/>
        <rect class="cls-1" x="11.32" y="8.32" width="187.11" height="184.36" rx="39.03" ry="39.03"/>
      </g>
      <g class="cls-5">
        <rect class="cls-2" x="19.07" y="15.83" width="171.66" height="169.13" rx="30.34" ry="30.34"/>
      </g>
      <g class="cls-3">
        <rect class="cls-4" x="19.06" y="15.95" width="171.66" height="169.13" rx="30.34" ry="30.34" transform="translate(209.78 201.02) rotate(180)"/>
      </g>
      <path class="cls-1" d="M48.06,51.27c0,6.78,0,13.56,0,20.34l8.3,5.28c.02-3.29,.03-6.58,.05-9.86,16.16,9.09,32.31,18.18,48.47,27.27,16.18-9.09,32.36-18.18,48.54-27.26v9.83c2.76-1.75,5.52-3.49,8.28-5.24v-20.29c-18.94,10.31-37.88,20.62-56.81,30.93-18.94-10.33-37.88-20.66-56.81-30.98Z"/>
      <path class="cls-1" d="M26.22,71.32v79.4h9.67c0-21.28-.02-42.57-.02-63.85,22.99,12.86,45.97,25.72,68.96,38.58,22.99-12.86,45.98-25.71,68.97-38.57-.02,21.28-.03,42.56-.05,63.84h9.78c-.04-26.5-.09-53.01-.13-79.51-26.19,14.27-52.38,28.55-78.57,42.82-26.2-14.23-52.4-28.47-78.6-42.7Z"/>
      <polygon class="cls-1" points="47.17 105.16 47.15 150.72 55.64 150.72 55.64 109.52 47.17 105.16"/>
    </g>
    <polygon class="cls-1" points="162.36 105.16 162.37 150.72 153.89 150.72 153.89 109.52 162.36 105.16"/>
  </g>
</svg>