<?xml version="1.0" encoding="UTF-8"?>
<svg id="Capa_1" data-name="Capa 1" xmlns="http://www.w3.org/2000/svg" xmlns:xlink="http://www.w3.org/1999/xlink" viewBox="0 0 724.38 168.04">
  <defs>
    <style>
      .cls-1 {
        fill: #fff;
      }

      .cls-2 {
        fill: #0049bf;
      }

      .cls-3 {
        clip-path: url(#clippath-1);
      }

      .cls-4 {
        fill: #e41d23;
      }

      .cls-5 {
        clip-path: url(#clippath);
      }

      .cls-6 {
        fill: none;
      }
    </style>
    <clipPath id="clippath">
      <rect class="cls-6" x="11.5" y="11.08" width="164.07" height="71.05"/>
    </clipPath>
    <clipPath id="clippath-1">
      <rect class="cls-6" y="86.02" width="164.07" height="71.05"/>
    </clipPath>
  </defs>
  <g>
    <g>
      <g>
        <rect class="cls-4" x="2.5" width="170.54" height="168.04" rx="40.02" ry="40.02"/>
        <rect class="cls-1" x="9.47" y="6.96" width="156.59" height="154.29" rx="32.66" ry="32.66"/>
      </g>
      <g class="cls-5">
        <rect class="cls-2" x="15.96" y="13.25" width="143.66" height="141.55" rx="25.39" ry="25.39"/>
      </g>
      <g class="cls-3">
        <rect class="cls-4" x="15.95" y="13.34" width="143.66" height="141.55" rx="25.39" ry="25.39"/>
      </g>
      <path class="cls-1" d="M40.22,42.91v17.02l6.95,4.42c.02-2.75,.03-5.51,.04-8.25,13.52,7.61,27.04,15.22,40.57,22.82,13.54-7.61,27.08-15.22,40.62-22.81v8.23c2.31-1.46,4.62-2.92,6.93-4.39v-16.98c-15.85,8.63-31.7,17.26-47.54,25.89-15.85-8.65-31.7-17.29-47.54-25.93l-.02-.02Z"/>
      <path class="cls-1" d="M21.94,59.69V126.14h8.09c0-17.81-.02-35.63-.02-53.44,19.24,10.76,38.47,21.53,57.71,32.29,19.24-10.76,38.48-21.52,57.72-32.28-.02,17.81-.03,35.62-.04,53.43h8.18c-.03-22.18-.08-44.36-.11-66.54-21.92,11.94-43.84,23.89-65.76,35.84-21.93-11.91-43.85-23.83-65.78-35.74h0Z"/>
      <polygon class="cls-1" points="39.48 88.01 39.46 126.14 46.57 126.14 46.57 91.66 39.48 88.01"/>
    </g>
    <polygon class="cls-1" points="135.88 88.01 135.89 126.14 128.79 126.14 128.79 91.66 135.88 88.01"/>
  </g>
  <g>
    <g>
      <path class="cls-1" d="M192.8,73.3h14.1l23.21,40.17h.85l23.21-40.17h14.2v75.9h-14.2v-37.42l.85-12.72h-.85l-19.29,34.03h-8.59l-19.4-34.03h-.85l.85,12.72v37.42h-14.1V73.3Z"/>
      <path class="cls-1" d="M306.54,95.56c4.03,0,7.72,.69,11.08,2.07,3.36,1.38,6.25,3.29,8.69,5.72s4.35,5.35,5.72,8.75,2.07,7.1,2.07,11.13-.69,7.74-2.07,11.13c-1.38,3.39-3.29,6.31-5.72,8.74s-5.34,4.35-8.69,5.72c-3.36,1.38-7.05,2.07-11.08,2.07s-7.72-.69-11.08-2.07c-3.36-1.38-6.25-3.29-8.69-5.72s-4.35-5.35-5.72-8.74c-1.38-3.39-2.07-7.1-2.07-11.13s.69-7.74,2.07-11.13,3.29-6.31,5.72-8.75,5.33-4.35,8.69-5.72c3.36-1.38,7.05-2.07,11.08-2.07Zm0,42.51c1.77,0,3.48-.33,5.14-1.01,1.66-.67,3.13-1.64,4.4-2.91,1.27-1.27,2.28-2.83,3.02-4.66,.74-1.84,1.11-3.92,1.11-6.25s-.37-4.42-1.11-6.25c-.74-1.84-1.75-3.39-3.02-4.66s-2.74-2.24-4.4-2.92c-1.66-.67-3.38-1.01-5.14-1.01s-3.57,.34-5.19,1.01c-1.63,.67-3.07,1.64-4.35,2.92s-2.28,2.83-3.02,4.66c-.74,1.84-1.11,3.92-1.11,6.25s.37,4.42,1.11,6.25c.74,1.84,1.75,3.39,3.02,4.66,1.27,1.27,2.72,2.24,4.35,2.91,1.62,.67,3.36,1.01,5.19,1.01Z"/>
      <path class="cls-1" d="M354.98,104.04h.85c1.62-2.61,3.82-4.68,6.57-6.2,2.76-1.52,5.9-2.28,9.43-2.28,3.25,0,6.11,.53,8.59,1.59,2.47,1.06,4.5,2.56,6.09,4.5,1.59,1.94,2.79,4.28,3.6,7,.81,2.72,1.22,5.74,1.22,9.06v31.48h-13.89v-29.79c0-3.74-.83-6.52-2.49-8.32-1.66-1.8-4.08-2.7-7.26-2.7-1.91,0-3.59,.41-5.03,1.22-1.45,.81-2.69,1.91-3.71,3.29-1.03,1.38-1.8,3-2.33,4.88-.53,1.87-.8,3.87-.8,5.99v25.44h-13.89v-51.94h13.04v6.78Z"/>
      <path class="cls-1" d="M405.86,109.13h-9.12v-11.87h9.12v-15.9h13.89v15.9h12.72v11.87h-12.72v20.75c0,1.24,.12,2.39,.37,3.44,.25,1.06,.72,1.95,1.43,2.68,.99,1.17,2.4,1.75,4.24,1.75,1.2,0,2.15-.12,2.86-.37,.71-.25,1.38-.58,2.01-1.01l3.92,12.19c-1.63,.78-3.38,1.36-5.25,1.75-1.87,.39-3.94,.58-6.2,.58-2.62,0-4.97-.42-7.05-1.24-2.09-.83-3.83-1.97-5.25-3.41-3.32-3.25-4.98-7.86-4.98-13.85v-23.26Z"/>
      <path class="cls-1" d="M491.29,136.69c-2.4,4.24-5.64,7.67-9.7,10.28-4.06,2.61-9.03,3.92-14.89,3.92-3.96,0-7.62-.69-10.97-2.07-3.36-1.38-6.27-3.3-8.74-5.78-2.47-2.47-4.4-5.39-5.78-8.75-1.38-3.36-2.07-7.05-2.07-11.08,0-3.74,.67-7.3,2.01-10.65,1.34-3.36,3.21-6.29,5.62-8.8,2.4-2.51,5.25-4.5,8.53-5.99,3.29-1.48,6.91-2.23,10.87-2.23,4.17,0,7.88,.69,11.13,2.07,3.25,1.38,5.97,3.29,8.16,5.72,2.19,2.44,3.85,5.32,4.98,8.64,1.13,3.32,1.7,6.93,1.7,10.81v1.27c-.07,.42-.11,.81-.11,1.17-.07,.35-.11,.74-.11,1.17h-39.11c.28,2.12,.86,3.94,1.75,5.46,.88,1.52,1.98,2.79,3.29,3.82,1.31,1.03,2.74,1.77,4.29,2.23,1.55,.46,3.14,.69,4.77,.69,3.18,0,5.81-.72,7.9-2.17,2.08-1.45,3.73-3.27,4.93-5.46l11.55,5.72Zm-12.61-20.14c-.07-.92-.37-1.94-.9-3.07-.53-1.13-1.31-2.19-2.33-3.18-1.03-.99-2.3-1.8-3.82-2.44-1.52-.64-3.34-.95-5.46-.95-2.97,0-5.58,.85-7.84,2.54-2.26,1.7-3.85,4.06-4.77,7.1h25.12Z"/>
      <path class="cls-1" d="M522.14,150.89c-3.39,0-6.41-.42-9.06-1.27-2.65-.85-4.95-1.96-6.89-3.34-1.94-1.38-3.59-2.97-4.93-4.77-1.34-1.8-2.37-3.62-3.07-5.46l12.4-5.3c1.2,2.69,2.81,4.68,4.82,5.99,2.01,1.31,4.26,1.96,6.73,1.96s4.56-.46,6.04-1.38c1.48-.92,2.23-2.01,2.23-3.29,0-1.41-.62-2.56-1.85-3.44-1.24-.88-3.38-1.68-6.41-2.38l-7.31-1.59c-1.63-.35-3.3-.92-5.03-1.7-1.73-.78-3.3-1.77-4.72-2.97-1.41-1.2-2.58-2.65-3.5-4.35-.92-1.7-1.38-3.67-1.38-5.94,0-2.54,.55-4.8,1.64-6.78,1.09-1.98,2.6-3.66,4.5-5.03,1.91-1.38,4.15-2.44,6.73-3.18,2.58-.74,5.35-1.11,8.32-1.11,4.95,0,9.36,.97,13.25,2.92,3.89,1.94,6.75,5.04,8.59,9.28l-11.98,4.88c-.99-2.05-2.44-3.53-4.35-4.45-1.91-.92-3.82-1.38-5.72-1.38s-3.71,.41-5.19,1.22c-1.48,.81-2.23,1.85-2.23,3.13,0,1.2,.62,2.16,1.86,2.86,1.24,.71,2.92,1.34,5.03,1.91l7.95,1.91c5.3,1.27,9.24,3.3,11.82,6.1,2.58,2.79,3.87,6.09,3.87,9.91,0,2.26-.53,4.42-1.59,6.47-1.06,2.05-2.56,3.87-4.51,5.46-1.94,1.59-4.28,2.85-7,3.76-2.72,.92-5.74,1.38-9.06,1.38Z"/>
      <path class="cls-1" d="M573.33,150.89c-3.39,0-6.41-.42-9.06-1.27-2.65-.85-4.95-1.96-6.89-3.34-1.94-1.38-3.59-2.97-4.93-4.77-1.34-1.8-2.37-3.62-3.07-5.46l12.4-5.3c1.2,2.69,2.81,4.68,4.82,5.99,2.01,1.31,4.26,1.96,6.73,1.96s4.56-.46,6.04-1.38c1.48-.92,2.23-2.01,2.23-3.29,0-1.41-.62-2.56-1.85-3.44-1.24-.88-3.38-1.68-6.41-2.38l-7.31-1.59c-1.63-.35-3.3-.92-5.03-1.7-1.73-.78-3.3-1.77-4.72-2.97-1.41-1.2-2.58-2.65-3.5-4.35-.92-1.7-1.38-3.67-1.38-5.94,0-2.54,.55-4.8,1.64-6.78,1.09-1.98,2.6-3.66,4.5-5.03,1.91-1.38,4.15-2.44,6.73-3.18,2.58-.74,5.35-1.11,8.32-1.11,4.95,0,9.36,.97,13.25,2.92,3.89,1.94,6.75,5.04,8.59,9.28l-11.98,4.88c-.99-2.05-2.44-3.53-4.35-4.45-1.91-.92-3.82-1.38-5.72-1.38s-3.71,.41-5.19,1.22c-1.48,.81-2.23,1.85-2.23,3.13,0,1.2,.62,2.16,1.86,2.86,1.24,.71,2.92,1.34,5.03,1.91l7.95,1.91c5.3,1.27,9.24,3.3,11.82,6.1,2.58,2.79,3.87,6.09,3.87,9.91,0,2.26-.53,4.42-1.59,6.47-1.06,2.05-2.56,3.87-4.51,5.46-1.94,1.59-4.28,2.85-7,3.76-2.72,.92-5.74,1.38-9.06,1.38Z"/>
      <path class="cls-1" d="M629.09,95.56c4.03,0,7.72,.69,11.08,2.07,3.36,1.38,6.25,3.29,8.69,5.72,2.44,2.44,4.35,5.35,5.72,8.75,1.38,3.39,2.07,7.1,2.07,11.13s-.69,7.74-2.07,11.13c-1.38,3.39-3.29,6.31-5.72,8.74-2.44,2.44-5.34,4.35-8.69,5.72-3.36,1.38-7.05,2.07-11.08,2.07s-7.72-.69-11.08-2.07c-3.36-1.38-6.25-3.29-8.69-5.72-2.44-2.44-4.35-5.35-5.72-8.74-1.38-3.39-2.07-7.1-2.07-11.13s.69-7.74,2.07-11.13,3.29-6.31,5.72-8.75c2.44-2.44,5.33-4.35,8.69-5.72,3.36-1.38,7.05-2.07,11.08-2.07Zm0,42.51c1.77,0,3.48-.33,5.14-1.01,1.66-.67,3.13-1.64,4.4-2.91,1.27-1.27,2.28-2.83,3.02-4.66,.74-1.84,1.11-3.92,1.11-6.25s-.37-4.42-1.11-6.25c-.74-1.84-1.75-3.39-3.02-4.66-1.27-1.27-2.74-2.24-4.4-2.92-1.66-.67-3.38-1.01-5.14-1.01s-3.57,.34-5.19,1.01c-1.63,.67-3.07,1.64-4.35,2.92-1.27,1.27-2.28,2.83-3.02,4.66-.74,1.84-1.11,3.92-1.11,6.25s.37,4.42,1.11,6.25c.74,1.84,1.75,3.39,3.02,4.66,1.27,1.27,2.72,2.24,4.35,2.91,1.62,.67,3.36,1.01,5.19,1.01Z"/>
      <path class="cls-1" d="M664.49,97.26h13.04v7.21h.85c.64-1.27,1.48-2.44,2.54-3.5,1.06-1.06,2.24-1.98,3.55-2.77,1.31-.79,2.72-1.42,4.24-1.91,1.52-.48,3.02-.73,4.5-.73,1.84,0,3.41,.2,4.72,.59,1.31,.39,2.42,.9,3.34,1.53l-3.71,12.4c-.85-.42-1.79-.76-2.81-1.01-1.03-.25-2.28-.37-3.76-.37-1.91,0-3.64,.37-5.19,1.12-1.56,.75-2.88,1.79-3.98,3.14-1.1,1.35-1.94,2.93-2.54,4.74-.6,1.81-.9,3.78-.9,5.91v25.57h-13.89v-51.94Z"/>
      <path class="cls-1" d="M715.37,90.26c-1.2,0-2.35-.23-3.45-.69-1.1-.46-2.05-1.09-2.86-1.91-.81-.81-1.45-1.75-1.91-2.81-.46-1.06-.69-2.23-.69-3.5s.23-2.44,.69-3.5c.46-1.06,1.09-2,1.91-2.81,.81-.81,1.77-1.45,2.86-1.91,1.1-.46,2.24-.69,3.45-.69,2.47,0,4.59,.87,6.36,2.6,1.77,1.73,2.65,3.83,2.65,6.31s-.88,4.58-2.65,6.31c-1.77,1.73-3.89,2.6-6.36,2.6Zm-6.89,58.94v-51.94h13.89v51.94h-13.89Z"/>
    </g>
    <g>
      <path class="cls-1" d="M225.19,47.38c-1.73,2.09-3.77,3.68-6.12,4.78s-4.98,1.64-7.89,1.64c-2.61,0-5.04-.47-7.28-1.42-2.24-.95-4.17-2.24-5.81-3.87-1.63-1.63-2.92-3.57-3.87-5.81-.95-2.24-1.42-4.65-1.42-7.23s.47-4.99,1.42-7.23c.95-2.24,2.24-4.17,3.87-5.81,1.63-1.63,3.57-2.92,5.81-3.87,2.24-.95,4.66-1.42,7.28-1.42,2.81,0,5.28,.49,7.42,1.47,2.14,.98,4.04,2.4,5.71,4.26l-4.65,4.51c-1.05-1.21-2.25-2.17-3.6-2.89-1.36-.72-2.96-1.08-4.83-1.08-1.63,0-3.17,.29-4.61,.86-1.44,.57-2.69,1.38-3.75,2.43-1.06,1.05-1.9,2.31-2.52,3.8-.62,1.49-.93,3.14-.93,4.97s.31,3.49,.93,4.97c.62,1.49,1.46,2.75,2.52,3.8,1.06,1.05,2.31,1.85,3.75,2.43,1.44,.57,2.97,.86,4.61,.86,1.96,0,3.7-.4,5.22-1.2,1.52-.8,2.87-1.94,4.04-3.41l4.7,4.46Z"/>
      <path class="cls-1" d="M240.08,28.23c1.86,0,3.57,.32,5.12,.96,1.55,.64,2.89,1.52,4.02,2.65s2.01,2.47,2.65,4.04,.96,3.28,.96,5.15-.32,3.58-.96,5.15c-.64,1.57-1.52,2.92-2.65,4.04s-2.47,2.01-4.02,2.65c-1.55,.64-3.26,.96-5.12,.96s-3.57-.32-5.12-.96c-1.55-.64-2.89-1.52-4.02-2.65s-2.01-2.47-2.65-4.04c-.64-1.57-.96-3.28-.96-5.15s.32-3.58,.96-5.15c.64-1.57,1.52-2.92,2.65-4.04s2.47-2.01,4.02-2.65c1.55-.64,3.26-.96,5.12-.96Zm0,19.65c.82,0,1.61-.15,2.38-.47,.77-.31,1.45-.76,2.03-1.35s1.05-1.31,1.4-2.16c.34-.85,.51-1.81,.51-2.89s-.17-2.04-.51-2.89c-.34-.85-.81-1.57-1.4-2.16-.59-.59-1.27-1.04-2.03-1.35-.77-.31-1.56-.47-2.38-.47s-1.65,.16-2.4,.47c-.75,.31-1.42,.76-2.01,1.35-.59,.59-1.05,1.31-1.4,2.16-.34,.85-.51,1.81-.51,2.89s.17,2.04,.51,2.89c.34,.85,.81,1.57,1.4,2.16,.59,.59,1.26,1.04,2.01,1.35,.75,.31,1.55,.47,2.4,.47Z"/>
      <path class="cls-1" d="M256.69,53.02V17.94h6.42V53.02h-6.42Z"/>
      <path class="cls-1" d="M291.09,47.24c-1.11,1.96-2.61,3.54-4.48,4.75-1.88,1.21-4.17,1.81-6.88,1.81-1.83,0-3.52-.32-5.07-.96-1.55-.64-2.9-1.53-4.04-2.67-1.14-1.14-2.03-2.49-2.67-4.04-.64-1.55-.96-3.26-.96-5.12,0-1.73,.31-3.37,.93-4.92,.62-1.55,1.49-2.91,2.6-4.07,1.11-1.16,2.43-2.08,3.94-2.77,1.52-.69,3.19-1.03,5.02-1.03,1.93,0,3.64,.32,5.15,.96,1.5,.64,2.76,1.52,3.77,2.65,1.01,1.13,1.78,2.46,2.3,3.99,.52,1.54,.78,3.2,.78,5v.59c-.03,.2-.05,.38-.05,.54-.03,.16-.05,.34-.05,.54h-18.08c.13,.98,.4,1.82,.81,2.52,.41,.7,.91,1.29,1.52,1.76,.6,.47,1.27,.82,1.98,1.03,.72,.21,1.45,.32,2.21,.32,1.47,0,2.69-.33,3.65-1,.96-.67,1.72-1.51,2.28-2.52l5.34,2.65Zm-5.83-9.31c-.03-.42-.17-.9-.42-1.42-.25-.52-.6-1.01-1.08-1.47-.47-.46-1.06-.83-1.76-1.13-.7-.29-1.54-.44-2.52-.44-1.37,0-2.58,.39-3.63,1.18-1.05,.78-1.78,1.88-2.21,3.28h11.61Z"/>
      <path class="cls-1" d="M306.92,64.39c-1.7,0-3.21-.22-4.53-.66-1.32-.44-2.47-1.01-3.45-1.71-.98-.7-1.8-1.48-2.45-2.33-.65-.85-1.13-1.7-1.42-2.55l6.12-2.45c.46,1.27,1.21,2.26,2.25,2.96,1.05,.7,2.21,1.05,3.48,1.05,2.03,0,3.63-.66,4.8-1.97,1.18-1.31,1.76-3.12,1.76-5.43v-1.67h-.39c-.75,1.05-1.74,1.87-2.96,2.47-1.22,.6-2.67,.91-4.34,.91-1.44,0-2.83-.29-4.19-.87-1.36-.58-2.56-1.41-3.6-2.5-1.05-1.08-1.9-2.39-2.55-3.91-.65-1.52-.98-3.22-.98-5.09s.33-3.58,.98-5.12c.65-1.54,1.5-2.85,2.55-3.93,1.05-1.08,2.25-1.92,3.6-2.5,1.35-.58,2.75-.87,4.19-.87,1.67,0,3.11,.3,4.34,.91,1.23,.6,2.21,1.43,2.96,2.47h.39v-2.6h6.12v22.29c0,2.02-.31,3.85-.93,5.46-.62,1.62-1.49,2.99-2.6,4.12-1.11,1.13-2.44,1.99-3.99,2.6-1.55,.6-3.28,.91-5.17,.91Zm.25-17.15c.78,0,1.56-.14,2.33-.43,.77-.29,1.45-.71,2.03-1.27,.59-.56,1.06-1.25,1.42-2.07,.36-.82,.54-1.76,.54-2.81s-.18-2-.54-2.84c-.36-.83-.83-1.53-1.42-2.09-.59-.56-1.27-.99-2.03-1.27-.77-.29-1.54-.43-2.33-.43s-1.55,.15-2.3,.43-1.42,.72-2.01,1.3c-.59,.58-1.06,1.28-1.42,2.09-.36,.82-.54,1.76-.54,2.81s.18,2,.54,2.81c.36,.82,.83,1.51,1.42,2.07,.59,.56,1.26,.99,2.01,1.27,.75,.29,1.52,.43,2.3,.43Z"/>
      <path class="cls-1" d="M328.67,25.78c-.56,0-1.09-.11-1.59-.32-.51-.21-.95-.51-1.32-.88-.38-.38-.67-.81-.88-1.3-.21-.49-.32-1.03-.32-1.62s.11-1.13,.32-1.62c.21-.49,.51-.92,.88-1.3,.38-.38,.82-.67,1.32-.88,.51-.21,1.04-.32,1.59-.32,1.14,0,2.12,.4,2.94,1.2,.82,.8,1.22,1.77,1.22,2.92s-.41,2.12-1.22,2.92c-.82,.8-1.8,1.2-2.94,1.2Zm-3.18,27.24V29.01h6.42v24.01h-6.42Z"/>
      <path class="cls-1" d="M348.91,28.23c1.86,0,3.57,.32,5.12,.96,1.55,.64,2.89,1.52,4.02,2.65s2.01,2.47,2.65,4.04,.96,3.28,.96,5.15-.32,3.58-.96,5.15c-.64,1.57-1.52,2.92-2.65,4.04s-2.47,2.01-4.02,2.65c-1.55,.64-3.26,.96-5.12,.96s-3.57-.32-5.12-.96c-1.55-.64-2.89-1.52-4.02-2.65s-2.01-2.47-2.65-4.04c-.64-1.57-.96-3.28-.96-5.15s.32-3.58,.96-5.15c.64-1.57,1.52-2.92,2.65-4.04s2.47-2.01,4.02-2.65c1.55-.64,3.26-.96,5.12-.96Zm0,19.65c.82,0,1.61-.15,2.38-.47,.77-.31,1.45-.76,2.03-1.35s1.05-1.31,1.4-2.16c.34-.85,.51-1.81,.51-2.89s-.17-2.04-.51-2.89c-.34-.85-.81-1.57-1.4-2.16-.59-.59-1.27-1.04-2.03-1.35-.77-.31-1.56-.47-2.38-.47s-1.65,.16-2.4,.47c-.75,.31-1.42,.76-2.01,1.35-.59,.59-1.05,1.31-1.4,2.16-.34,.85-.51,1.81-.51,2.89s.17,2.04,.51,2.89c.34,.85,.81,1.57,1.4,2.16,.59,.59,1.26,1.04,2.01,1.35,.75,.31,1.55,.47,2.4,.47Z"/>
    </g>
  </g>
</svg>