<?xml version="1.0" encoding="UTF-8"?>
<svg width="19" id="Capa_1" data-name="Capa 1" xmlns="http://www.w3.org/2000/svg" viewBox="0 0 162.73 144.23">
  <defs>
    <style>
      .cls-1, .cls-2 {
        fill: #fff;
      }

      .cls-2 {
        isolation: isolate;
        opacity: .6;
      }
    </style>
  </defs>
  <path class="cls-2" d="M26,63.18C17.94,48.5,9.76,33.88,1.87,19.1-1.26,13.24-.35,7.6,3.76,3.41,8.37-1.29,13.71-.44,19,1.83c25.19,10.81,50.34,21.73,75.51,32.59,18.61,8.03,37.2,16.09,55.85,24.04,6.39,2.72,12.46,5.93,12.37,13.89-.08,7.68-5.99,10.81-12.22,13.49-43.34,18.64-86.66,37.35-129.96,56.08-8.46,3.66-14.15,3.04-17.96-2.34-3.21-4.54-3.22-9.22-.6-14.08,7.97-14.75,15.89-29.54,23.83-44.31,3.36,.34,6.58-.58,9.86-.99,15.74-2,31.47-4,47.21-5.97,1.48-.19,3.25,.01,3.15-2.18-.08-1.82-1.63-1.7-2.96-1.87-6.23-.81-12.44-1.74-18.67-2.49-12.8-1.54-25.6-3-38.41-4.48v-.03Z"/>
  <path class="cls-1" d="M86.04,71.58c-.3-1.57-1.43-2.46-1.9-2.82-1.39-1.06-2.94-1.2-3.41-1.24-2.63-.25-8.73-1.85-21.01-4.65-.35-.08-1.76-.42-3.68-.85,0,0-1.11-.25-2.25-.49-2.16-.46-14.44-2.4-31.32-4.76,.28,.51,.71,1.29,1.24,2.25,.48,.86,.64,1.15,.88,1.61,0,0,.69,1.29,1.23,2.43,2.16,4.59,1.93,9.93,1.93,9.93-.16,3.74-1.29,6.42-2.48,9.24-1.11,2.63-2.34,4.68-3.27,6.08,2.5-.39,5.04-.81,7.63-1.28,3.77-.68,7.43-1.41,10.98-2.18,14.24-2.87,28.48-5.74,42.73-8.61,.13,0,1.51-.03,2.27-1.88,.52-1.26,.52-2.35,.44-2.78Z"/>
</svg>