<?xml version="1.0" encoding="UTF-8"?>
<svg id="Capa_1" data-name="Capa 1" xmlns="http://www.w3.org/2000/svg" viewBox="0 0 30.99 31.38">
  <defs>
    <style>
      .cls-1 {
        fill: rgba(255, 255, 255, .8);
      }
    </style>
  </defs>
  <path class="cls-1" d="M19.5,30.8c-1.55,.48-3.18,.66-4.8,.54-3.7-.16-7.2-1.68-9.86-4.25C2.06,24.49,.36,20.95,.07,17.15c-.35-4.16,.67-7.93,3.26-11.21C8.55-.77,18.22-1.98,24.93,3.24c0,0,.02,.01,.02,.02,.38,.29,.75,.61,1.09,.95,2.46,2.26,4.1,5.28,4.67,8.58-.11,0-.23-.03-.32-.1-1.41-1.06-2.84-2.14-4.27-3.16-.64-.47-1.22-1.03-1.99-1.33,.1-.32-.13-.4-.35-.46-2.63-.77-5.28-1.55-7.9-2.34-.3-.1-.62-.1-.92,0-1.4,.43-2.81,.87-4.22,1.29l-3.47,1.06c-.22,.06-.55,.18-.27,.47,.56,.59,.14,1.27,.24,1.89-.61,.52-.26,1.21-.35,1.83-.02,.16,0,.3,.23,.3h.99c.11,0,.21-.03,.21-.16,0-.52,.19-1.14-.1-1.55-.37-.55-.26-1.06-.29-1.61-.03-.29,.1-.35,.35-.26,1.06,.34,2.12,.66,3.18,.99l.03,.29c0,.32-.02,.63-.02,.95,0,.16-.07,.32-.21,.4-2.49,1.78-3.58,4.22-3.39,7.24,.18,2.86,1.53,5.01,4.06,6.41,.16,.08,.35,.1,.43,.3-.02,.16,.11,.22,.22,.3,2.14,1.57,4.27,3.15,6.38,4.74,.15,.1,.48,.18,.51,.52Z"/>
  <path class="cls-1" d="M24.14,8.18c.77,.29,1.35,.87,1.99,1.33,1.43,1.03,2.86,2.1,4.27,3.16,.09,.07,.21,.11,.32,.1,.29,1.14,.27,2.29,.26,3.45-.03,3.28-1.15,6.46-3.18,9.03-1.95,2.6-4.69,4.51-7.8,5.45-.16,.05-.32,.08-.48,.08-.03-.34-.35-.42-.56-.58-2.12-1.59-4.26-3.15-6.37-4.72-.1-.08-.24-.13-.22-.3,.87,.18,1.72,.5,2.62,.56,3.24,.24,5.78-.93,7.6-3.66,.18-.26,.21-.42-.14-.58-.88-.4-1.77-.85-2.63-1.29-.22-.11-.35-.13-.52,.11-.9,1.38-2.19,2.01-3.84,1.89-1.73-.08-3.2-1.3-3.6-2.99-.1-.42,.02-.5,.4-.48,3.4,.02,6.79,0,10.2,.02,.52,0,.64-.16,.53-.61,.06-.71,.03-1.42-.08-2.12-.3-1.7-.91-3.28-2.29-4.35-.76-.6-1.16-1.17-1-2.1,.13-.13,.32-.13,.5-.19l4.05-1.21Z"/>
  <path class="cls-1" d="M17.91,14.65c.48-.34,1.12-.34,1.61,0,.52,.35,.69,.88,.59,1.51-.3,.77-.77,1.11-1.48,1.07-.61-.02-1.13-.44-1.29-1.03-.14-.58,.09-1.19,.57-1.55Z"/>
  <path class="cls-1" d="M13.33,15.82c0-.77,.64-1.4,1.41-1.4,.77,0,1.4,.64,1.4,1.41,0,.77-.62,1.4-1.39,1.41-.76,.02-1.4-.59-1.41-1.35,0,0,0,0,0-.01v-.06Z"/>
</svg>