<?xml version="1.0" encoding="UTF-8"?>
<svg id="Capa_1" data-name="Capa 1" xmlns="http://www.w3.org/2000/svg" viewBox="0 0 121 121">
  <defs>
    <style>
      .cls-1 {
        fill: #c5d4e4;
      }
    </style>
  </defs>
  <path class="cls-1" d="M60.5,0C27.09,0,0,27.09,0,60.5s27.09,60.5,60.5,60.5,60.5-27.09,60.5-60.5S93.91,0,60.5,0Zm-22.5,54.67c3.97-7.63,8.12-15.17,12.5-22.57,4.39-7.44,14.4-7.49,18.82-.06,4.3,7.25,8.31,14.69,12.13,22.21,3.88,7.63-.55,15.12-9.05,15.55-4.3,.22-8.63,.04-12.94,.04v.16c-4.15,0-8.31,.15-12.45-.03-8.11-.36-12.73-8.09-8.99-15.28Zm53.25,27.8c-7.88,7.46-20.14,12.25-29.2,12.03-13.45-.44-23.5-4.14-31.92-11.92-2.06-1.91-3.96-4.04-1.6-6.79,2.41-2.81,4.94-1.84,7.3,.39,13.97,13.21,35.98,12.97,49.59-.23,2.2-2.14,4.76-2.83,6.95-.33,2.14,2.44,1.15,4.68-1.13,6.84Z"/>
  <path class="cls-1" d="M48.87,61.84c3.64-.02,7.28,0,10.93,0,3.64,0,7.28,.06,10.92-.02,3.23-.07,4.79-1.35,2.97-4.67-3.65-6.65-7.26-13.32-10.98-19.93-1.95-3.46-3.9-3.04-5.7,.23-3.65,6.65-7.3,13.31-11.02,19.92-1.95,3.46-.46,4.5,2.89,4.48Z"/>
</svg>